
<svg width="60px" height="60px" viewBox="0 0 60 60" version="1.1" xmlns="http://www.w3.org/2000/svg" xmlns:xlink="http://www.w3.org/1999/xlink">
    <!-- Generator: Sketch 51.2 (57519) - http://www.bohemiancoding.com/sketch -->
    <desc>Created with Sketch.</desc>
    <defs></defs>
    <g id="Page-1" stroke="none" stroke-width="1" fill="none" fill-rule="evenodd">
        <g id="Artboard" transform="translate(-30.000000, -127.000000)" fill="#000000" fill-rule="nonzero">
            <g id="Pull-Request-Merge" transform="translate(25.000000, 120.000000)">
                <g id="github_logo" transform="translate(5.000000, 7.000000)">
                    <path d="M55.9757015,15.1701613 C53.2930183,10.503317 49.6541298,6.80856977 45.0580783,4.0850863 C40.4613427,1.36146391 35.4430778,0 29.9997264,0 C24.557059,0 19.5371523,1.36188065 14.9413745,4.0850863 C10.3449125,6.80843086 6.70616081,10.503317 4.02347758,15.1701613 C1.3412048,19.8368668 0,24.9329453 0,30.4582579 C0,37.0954118 1.90721156,43.0637107 5.72259238,48.3646824 C9.53756276,53.6660709 14.4659397,57.3344251 20.5073128,59.3701616 C21.2105458,59.5026824 21.7311297,59.4094734 22.0696119,59.0928958 C22.4082308,58.7759016 22.5773351,58.3788948 22.5773351,57.9035423 C22.5773351,57.8242243 22.5706311,57.1106399 22.5576336,55.7619558 C22.5442257,54.4132717 22.5379322,53.2366979 22.5379322,52.2327902 L21.6394631,52.3905928 C21.0666156,52.4971373 20.3439548,52.5422833 19.4714808,52.5295035 C18.5994172,52.5171404 17.6941073,52.4243481 16.7567826,52.251821 C15.8190475,52.0808219 14.9468471,51.6842318 14.1394973,51.0628842 C13.332558,50.4415365 12.7597105,49.6282143 12.4210915,48.6241676 L12.0304825,47.7115243 C11.7701222,47.1039288 11.3602222,46.4289616 10.8002353,45.6891232 C10.2402485,44.9485901 9.67396807,44.4465668 9.10112052,44.1822197 L8.82762584,43.9834385 C8.64538726,43.8513344 8.47628299,43.6920038 8.31990259,43.5071137 C8.163659,43.3222235 8.04668153,43.1371944 7.96855974,42.9518875 C7.89030113,42.7664417 7.9551518,42.6143345 8.16379582,42.4950102 C8.37243984,42.3756859 8.74950404,42.3177601 9.29663023,42.3177601 L10.0775745,42.436251 C10.5984321,42.5422398 11.2426975,42.8588173 12.0111915,43.3879283 C12.7792752,43.9166224 13.4106798,44.6039527 13.9055424,45.4496411 C14.5047954,46.5339781 15.2267721,47.3602191 16.0735248,47.9287806 C16.9195934,48.4973422 17.7726396,48.7811368 18.6318425,48.7811368 C19.4910454,48.7811368 20.233134,48.7150153 20.858382,48.5834668 C21.4829459,48.4512238 22.0689278,48.2524426 22.616054,47.9882344 C22.8504193,46.2160115 23.488528,44.8545476 24.5298327,43.9028703 C23.0456554,43.7445121 21.7112914,43.5060024 20.5260566,43.1888692 C19.3415058,42.8713193 18.1174153,42.3559606 16.8546059,41.6414038 C15.5911124,40.9278195 14.542967,40.0417081 13.7098959,38.9845975 C12.876688,37.9269313 12.1928828,36.5383798 11.6594382,34.8201932 C11.12572,33.101312 10.8587925,31.1185005 10.8587925,28.8712029 C10.8587925,25.6713946 11.8876469,22.9484668 13.9449453,20.7008914 C12.9812152,18.2952357 13.0721977,15.5984231 14.2181664,12.6107314 C14.9733893,12.3724995 16.0933631,12.5512776 17.5775403,13.1459544 C19.0619912,13.740909 20.1488555,14.2505724 20.8392278,14.6731388 C21.5296001,15.0955663 22.0827462,15.4535392 22.4994869,15.7438626 C24.9218098,15.0566713 27.4215704,14.7130062 29.9994527,14.7130062 C32.5773351,14.7130062 35.0776429,15.0566713 37.5001026,15.7438626 L38.9844167,14.7924631 C39.9994527,14.1576411 41.1980955,13.5758831 42.5774719,13.04705 C43.9576692,12.5184947 45.0130659,12.3729163 45.7425675,12.6111481 C46.9139839,15.5989787 47.0183744,18.2956524 46.0543706,20.7013082 C48.1115322,22.9488835 49.1407971,25.6725059 49.1407971,28.8716197 C49.1407971,31.1189172 48.8729118,33.1079797 48.3400145,34.8400574 C47.8064331,36.572413 47.1167449,37.9595754 46.2706763,39.0044617 C45.42365,40.0492092 44.3688005,40.9283751 43.1059912,41.6418206 C41.8429082,42.3558217 40.6184072,42.8711804 39.4338564,43.1887303 C38.2487584,43.5062802 36.9143944,43.7449288 35.4302171,43.9035648 C36.7838722,45.0929184 37.4608365,46.9702967 37.4608365,49.5348663 L37.4608365,57.902431 C37.4608365,58.3777835 37.6236472,58.7746514 37.9495424,59.0917846 C38.275027,59.4083621 38.7890438,59.5015712 39.4922768,59.3689114 C45.5344707,57.3334527 50.4628477,53.6649597 54.2776812,48.3635711 C58.0921044,43.0625994 60,37.0943005 60,30.4571466 C59.9986318,24.9325285 58.656743,19.8368668 55.9757015,15.1701613 Z" id="Shape"></path>
                </g>
            </g>
        </g>
    </g>
</svg>